# xmcd
#
# Track frame offsets:
#	150
#	18786
#	33849
#	51960
#	66531
#	88063
#	110424
#	132738
#	150213
#	168713
#	185106
#	201281
#
# Disc length: 2913 seconds
#
# Revision: 6
# Processed by: cddbd v1.5.2PL0 Copyright (c) Steve Scherf et al.
# Submitted via: EasyCDDAExtractor 2010.6.0.0
#
DISCID=a90b5f0c
DTITLE=박진영 - Game - 2
DYEAR=2001
DGENRE=R&B
TTITLE0=Swing Baby
TTITLE1=방문에서 침대까지
TTITLE2=난 여자가 있는데
TTITLE3=음음음
TTITLE4=너의 손끝
TTITLE5=창살없는 감옥
TTITLE6=마지막 밤
TTITLE7=처음 만난 남자와
TTITLE8=놀이
TTITLE9=해 달 별
TTITLE10=밀애
TTITLE11=데자부
EXTD=
EXTT0=
EXTT1=
EXTT2=
EXTT3=
EXTT4=
EXTT5=
EXTT6=
EXTT7=
EXTT8=
EXTT9=
EXTT10=
EXTT11=
PLAYORDER=
